<svg width="33" height="33" viewBox="0 0 33 33" fill="none" xmlns="http://www.w3.org/2000/svg">
<rect width="33" height="33" rx="6" fill="black"/>
<path d="M21.7086 6.08344H11.292C8.4155 6.08344 6.08365 8.41529 6.08365 11.2918V21.7084C6.08365 24.5849 8.4155 26.9168 11.292 26.9168H21.7086C24.5851 26.9168 26.917 24.5849 26.917 21.7084V11.2918C26.917 8.41529 24.5851 6.08344 21.7086 6.08344Z" stroke="white" stroke-linecap="round" stroke-linejoin="round"/>
<path d="M20.6668 15.8439C20.7954 16.7108 20.6473 17.5962 20.2437 18.3741C19.84 19.152 19.2014 19.7829 18.4185 20.1769C17.6357 20.5709 16.7485 20.708 15.8833 20.5688C15.018 20.4296 14.2187 20.0211 13.5989 19.4013C12.9792 18.7816 12.5707 17.9823 12.4315 17.117C12.2922 16.2517 12.4294 15.3646 12.8234 14.5818C13.2174 13.7989 13.8483 13.1603 14.6262 12.7566C15.4041 12.353 16.2895 12.2049 17.1564 12.3335C18.0407 12.4646 18.8594 12.8767 19.4915 13.5088C20.1236 14.1409 20.5357 14.9596 20.6668 15.8439Z" stroke="white" stroke-linecap="round" stroke-linejoin="round"/>
<path d="M22.2289 10.7709H22.2398" stroke="white" stroke-linecap="round" stroke-linejoin="round"/>
</svg>
