<svg width="33" height="33" viewBox="0 0 33 33" fill="none" xmlns="http://www.w3.org/2000/svg">
<rect width="32.8819" height="33" rx="6" fill="black"/>
<path d="M8.11053 20.8765C7.5211 17.9918 7.5211 15.0111 8.11053 12.1265C8.18797 11.8335 8.33761 11.5665 8.54472 11.3517C8.75184 11.137 9.0093 10.9818 9.29178 10.9015C13.8172 10.124 18.4351 10.124 22.9605 10.9015C23.243 10.9818 23.5005 11.137 23.7076 11.3517C23.9147 11.5665 24.0643 11.8335 24.1418 12.1265C24.7312 15.0111 24.7312 17.9918 24.1418 20.8765C24.0643 21.1694 23.9147 21.4364 23.7076 21.6512C23.5005 21.866 23.243 22.0211 22.9605 22.1015C18.4351 22.8791 13.8172 22.8791 9.29178 22.1015C9.0093 22.0211 8.75184 21.866 8.54472 21.6512C8.33761 21.4364 8.18797 21.1694 8.11053 20.8765Z" stroke="white" stroke-width="1.0826" stroke-linecap="round" stroke-linejoin="round"/>
<path d="M14.4371 19.1367L18.6559 16.5117L14.4371 13.8867V19.1367Z" stroke="white" stroke-width="1.0826" stroke-linecap="round" stroke-linejoin="round"/>
</svg>
